<svg width="26" height="29" viewBox="0 0 26 29" fill="none" xmlns="http://www.w3.org/2000/svg">
<path d="M8.6875 21.7222V23.1667C8.6875 24.3159 9.14185 25.4181 9.9506 26.2308C10.7594 27.0435 11.8563 27.5 13 27.5C14.1437 27.5 15.2406 27.0435 16.0494 26.2308C16.8581 25.4181 17.3125 24.3159 17.3125 23.1667V21.7222M10.125 4.38889C10.125 3.62271 10.4279 2.88791 10.9671 2.34614C11.5062 1.80436 12.2375 1.5 13 1.5C13.7625 1.5 14.4938 1.80436 15.0329 2.34614C15.5721 2.88791 15.875 3.62271 15.875 4.38889C17.5258 5.17326 18.9331 6.39425 19.9461 7.92099C20.959 9.44773 21.5394 11.2227 21.625 13.0556V17.3889C21.7332 18.2869 22.0497 19.1469 22.549 19.8995C23.0484 20.6522 23.7167 21.2765 24.5 21.7222H1.5C2.28335 21.2765 2.9516 20.6522 3.45096 19.8995C3.95031 19.1469 4.26682 18.2869 4.375 17.3889V13.0556C4.46062 11.2227 5.041 9.44773 6.05393 7.92099C7.06686 6.39425 8.47416 5.17326 10.125 4.38889Z" stroke="#ABABAB" stroke-width="3" stroke-linecap="round" stroke-linejoin="round"/>
</svg>
