<svg width="43" height="43" viewBox="0 0 43 43" fill="none" xmlns="http://www.w3.org/2000/svg">
<path d="M19.7991 42.3144C19.3404 41.8557 19.1111 41.288 19.1111 40.6111V27.2333L9.675 36.7292C9.19723 37.2069 8.63026 37.4458 7.97412 37.4458C7.31797 37.4458 6.75021 37.2069 6.27084 36.7292C5.79147 36.2514 5.55258 35.6844 5.55417 35.0283C5.55576 34.3721 5.79465 33.8044 6.27084 33.325L15.7667 23.8889H2.3889C1.71204 23.8889 1.14508 23.6596 0.688008 23.2009C0.230934 22.7422 0.00160083 22.1753 8.23753e-06 21.5C-0.00158435 20.8247 0.227749 20.2578 0.688008 19.7991C1.14827 19.3404 1.71523 19.1111 2.3889 19.1111H15.7667L6.27084 9.675C5.79306 9.19723 5.55417 8.63026 5.55417 7.97412C5.55417 7.31797 5.79306 6.75021 6.27084 6.27084C6.74862 5.79147 7.31637 5.55258 7.97412 5.55417C8.63186 5.55576 9.19882 5.79465 9.675 6.27084L19.1111 15.7667V2.3889C19.1111 1.71204 19.3404 1.14508 19.7991 0.688008C20.2578 0.230934 20.8247 0.00160083 21.5 8.23753e-06C22.1753 -0.00158435 22.743 0.227749 23.2033 0.688008C23.6635 1.14827 23.8921 1.71523 23.8889 2.3889V15.7667L33.325 6.27084C33.8028 5.79306 34.3705 5.55417 35.0283 5.55417C35.686 5.55417 36.253 5.79306 36.7292 6.27084C37.2053 6.74862 37.4442 7.31637 37.4458 7.97412C37.4474 8.63186 37.2085 9.19882 36.7292 9.675L27.2333 19.1111H40.6111C41.288 19.1111 41.8557 19.3404 42.3144 19.7991C42.773 20.2578 43.0016 20.8247 43 21.5C42.9984 22.1753 42.7691 22.743 42.312 23.2033C41.8549 23.6635 41.288 23.8921 40.6111 23.8889H27.2333L36.7292 33.325C37.2069 33.8028 37.4458 34.3705 37.4458 35.0283C37.4458 35.686 37.2069 36.253 36.7292 36.7292C36.2514 37.2053 35.6844 37.4442 35.0283 37.4458C34.3721 37.4474 33.8044 37.2085 33.325 36.7292L23.8889 27.2333V40.6111C23.8889 41.288 23.6596 41.8557 23.2009 42.3144C22.7422 42.773 22.1753 43.0016 21.5 43C20.8247 42.9984 20.2578 42.7715 19.7991 42.3144Z" fill="url(#paint0_linear_716_453)"/>
<defs>
<linearGradient id="paint0_linear_716_453" x1="21.5" y1="0" x2="21.5" y2="43" gradientUnits="userSpaceOnUse">
<stop stop-color="#347C85"/>
<stop offset="1" stop-color="#015356"/>
</linearGradient>
</defs>
</svg>
