<svg width="26" height="32" viewBox="0 0 26 32" fill="none" xmlns="http://www.w3.org/2000/svg">
<path d="M7.94444 4.72217H4.72222C3.86763 4.72217 3.04805 5.06165 2.44377 5.66593C1.83948 6.27022 1.5 7.0898 1.5 7.94439V27.2777C1.5 28.1323 1.83948 28.9519 2.44377 29.5562C3.04805 30.1604 3.86763 30.4999 4.72222 30.4999H20.8333C21.6879 30.4999 22.5075 30.1604 23.1118 29.5562C23.716 28.9519 24.0555 28.1323 24.0555 27.2777V7.94439C24.0555 7.0898 23.716 6.27022 23.1118 5.66593C22.5075 5.06165 21.6879 4.72217 20.8333 4.72217H17.6111" stroke="#ABABAB" stroke-width="3" stroke-linecap="round" stroke-linejoin="round"/>
<path d="M7.94531 24.0555V16M12.7786 24.0555V22.4444M17.612 24.0555V19.2222M7.94531 4.72222C7.94531 3.86763 8.2848 3.04805 8.88908 2.44377C9.49336 1.83948 10.3129 1.5 11.1675 1.5H14.3898C15.2443 1.5 16.0639 1.83948 16.6682 2.44377C17.2725 3.04805 17.612 3.86763 17.612 4.72222C17.612 5.5768 17.2725 6.39639 16.6682 7.00067C16.0639 7.60496 15.2443 7.94444 14.3898 7.94444H11.1675C10.3129 7.94444 9.49336 7.60496 8.88908 7.00067C8.2848 6.39639 7.94531 5.5768 7.94531 4.72222Z" stroke="#ABABAB" stroke-width="3" stroke-linecap="round" stroke-linejoin="round"/>
</svg>
