<svg width="31" height="37" viewBox="0 0 31 37" fill="none" xmlns="http://www.w3.org/2000/svg">
<path d="M14.5882 37C10.4245 37 6.95251 35.5508 4.17224 32.6525C1.39196 29.7542 0.00121569 26.1467 0 21.83C0 18.7467 1.20839 15.3938 3.62518 11.7715C6.04196 8.14925 9.69631 4.2254 14.5882 0C15.4088 0.709167 16.1838 1.40292 16.9132 2.08125C17.6426 2.75958 18.3569 3.43792 19.0559 4.11625C17.9922 5.34958 16.9819 6.80677 16.0252 8.4878C15.0684 10.1688 14.5895 11.8412 14.5882 13.505C14.5882 16.4342 15.5687 18.9243 17.5296 20.9753C19.4905 23.0263 21.8532 24.0512 24.6176 24.05C25.4078 24.05 26.1755 23.9655 26.9208 23.7966C27.666 23.6276 28.4027 23.3421 29.1309 22.94C28.8877 26.9792 27.3985 30.3326 24.6632 33.0003C21.9279 35.668 18.5696 37.0012 14.5882 37ZM20.0588 18.315C18.8431 16.9583 18.2353 15.355 18.2353 13.505C18.2353 12.21 18.7975 10.6992 19.9221 8.9725C21.0466 7.24583 22.6118 5.48833 24.6176 3.7C26.7451 5.61167 28.3407 7.37657 29.4044 8.9947C30.4681 10.6128 31 12.1163 31 13.505C31 15.355 30.3922 16.9583 29.1765 18.315C27.9608 19.6717 26.4412 20.35 24.6176 20.35C22.7941 20.35 21.2745 19.6717 20.0588 18.315ZM15.0897 31.45C15.4544 31.4192 15.7662 31.2724 16.0252 31.0097C16.2841 30.747 16.413 30.4313 16.4118 30.0625C16.4118 29.6308 16.275 29.2843 16.0015 29.0228C15.7279 28.7613 15.3784 28.6454 14.9529 28.675C13.7069 28.7675 12.3848 28.4209 10.9868 27.6353C9.58872 26.8497 8.70735 25.4233 8.34265 23.3563C8.28186 23.0171 8.12261 22.7396 7.86488 22.5238C7.60716 22.3079 7.31053 22.2 6.975 22.2C6.54951 22.2 6.2 22.3622 5.92647 22.6865C5.65294 23.0109 5.56176 23.3883 5.65294 23.8188C6.16961 26.6246 7.38529 28.6288 9.3 29.8313C11.2147 31.0338 13.1446 31.5733 15.0897 31.45Z" fill="url(#paint0_linear_717_573)"/>
<defs>
<linearGradient id="paint0_linear_717_573" x1="15.5" y1="0" x2="15.5" y2="37" gradientUnits="userSpaceOnUse">
<stop stop-color="#357D86"/>
<stop offset="1" stop-color="#026366"/>
</linearGradient>
</defs>
</svg>
