<svg width="21" height="42" viewBox="0 0 21 42" fill="none" xmlns="http://www.w3.org/2000/svg">
<path d="M3.0723 38.9298C1.0241 36.8816 0 34.405 0 31.5C0 29.82 0.3675 28.2534 1.1025 26.8002C1.8375 25.347 2.87 24.1136 4.2 23.1V6.3C4.2 4.55 4.8125 3.0625 6.0375 1.8375C7.2625 0.6125 8.75 0 10.5 0C12.25 0 13.7375 0.6125 14.9625 1.8375C16.1875 3.0625 16.8 4.55 16.8 6.3V23.1C18.13 24.115 19.1625 25.3491 19.8975 26.8023C20.6325 28.2555 21 29.8214 21 31.5C21 34.405 19.9759 36.8816 17.9277 38.9298C15.8795 40.978 13.4036 42.0014 10.5 42C7.5964 41.9986 5.1205 40.9766 3.0723 38.9298ZM8.4 18.9H12.6V16.8H10.5V14.7H12.6V10.5H10.5V8.4H12.6V6.3C12.6 5.705 12.3984 5.2066 11.9952 4.8048C11.592 4.403 11.0936 4.2014 10.5 4.2C9.9064 4.1986 9.408 4.4002 9.0048 4.8048C8.6016 5.2094 8.4 5.7078 8.4 6.3V18.9Z" fill="url(#paint0_linear_713_410)"/>
<defs>
<linearGradient id="paint0_linear_713_410" x1="5.6" y1="11.2" x2="17.7333" y2="35.9333" gradientUnits="userSpaceOnUse">
<stop stop-color="#357D86"/>
<stop offset="1" stop-color="#026366"/>
</linearGradient>
</defs>
</svg>
