<svg width="25" height="25" viewBox="0 0 25 25" fill="none" xmlns="http://www.w3.org/2000/svg">
<path d="M13.3835 0.365987L24.6314 11.6161C25.4187 12.4036 24.8613 13.7499 23.7478 13.7499H22.498V21.25C22.498 22.2445 22.103 23.1984 21.3999 23.9016C20.6967 24.6049 19.7431 25 18.7487 25H6.25103C5.25665 25 4.303 24.6049 3.59987 23.9016C2.89674 23.1984 2.50172 22.2445 2.50172 21.25V13.7499H1.25195C0.139659 13.7499 -0.418988 12.4036 0.368366 11.6161L11.6163 0.365987C11.8506 0.131646 12.1685 0 12.4999 0C12.8313 0 13.1491 0.131646 13.3835 0.365987ZM14.3745 11.2499H10.6252C10.128 11.2499 9.6512 11.4474 9.29964 11.799C8.94807 12.1507 8.75056 12.6276 8.75056 13.1249V16.8749C8.75056 17.3722 8.94807 17.8491 9.29964 18.2008C9.6512 18.5524 10.128 18.7499 10.6252 18.7499H14.3745C14.8717 18.7499 15.3485 18.5524 15.7001 18.2008C16.0517 17.8491 16.2492 17.3722 16.2492 16.8749V13.1249C16.2492 12.6276 16.0517 12.1507 15.7001 11.799C15.3485 11.4474 14.8717 11.2499 14.3745 11.2499Z" fill="url(#paint0_linear_717_472)"/>
<defs>
<linearGradient id="paint0_linear_717_472" x1="12.5" y1="0" x2="12.5" y2="25" gradientUnits="userSpaceOnUse">
<stop stop-color="#357D86"/>
<stop offset="1" stop-color="#036366"/>
</linearGradient>
</defs>
</svg>
