<svg width="27" height="27" viewBox="0 0 27 27" fill="none" xmlns="http://www.w3.org/2000/svg">
<path d="M1.5 25.5V22.8333C1.5 21.4188 2.0619 20.0623 3.0621 19.0621C4.06229 18.0619 5.41885 17.5 6.83333 17.5H12.1667C13.5812 17.5 14.9377 18.0619 15.9379 19.0621C16.9381 20.0623 17.5 21.4188 17.5 22.8333V25.5M18.8333 1.67333C19.9806 1.96707 20.9974 2.63427 21.7235 3.56975C22.4497 4.50523 22.8438 5.65577 22.8438 6.84C22.8438 8.02423 22.4497 9.17477 21.7235 10.1103C20.9974 11.0457 19.9806 11.7129 18.8333 12.0067M25.5 25.5V22.8333C25.4932 21.6562 25.0972 20.5144 24.3737 19.5859C23.6502 18.6573 22.6398 17.9943 21.5 17.7M4.16667 6.83333C4.16667 8.24782 4.72857 9.60438 5.72876 10.6046C6.72896 11.6048 8.08551 12.1667 9.5 12.1667C10.9145 12.1667 12.271 11.6048 13.2712 10.6046C14.2714 9.60438 14.8333 8.24782 14.8333 6.83333C14.8333 5.41885 14.2714 4.06229 13.2712 3.0621C12.271 2.0619 10.9145 1.5 9.5 1.5C8.08551 1.5 6.72896 2.0619 5.72876 3.0621C4.72857 4.06229 4.16667 5.41885 4.16667 6.83333Z" stroke="#ABABAB" stroke-width="3" stroke-linecap="round" stroke-linejoin="round"/>
</svg>
