<svg width="105" height="105" viewBox="0 0 105 105" fill="none" xmlns="http://www.w3.org/2000/svg">
<path d="M52.5 105C48.125 105 44.4062 103.469 41.3438 100.406C38.2813 97.3438 36.75 93.625 36.75 89.25C36.75 88.8125 36.7727 88.3313 36.8182 87.8063C36.8637 87.2813 36.9285 86.8 37.0125 86.3625L26.1187 80.1937C24.7187 81.4187 23.1437 82.3602 21.3937 83.0182C19.6437 83.6762 17.7625 84.0035 15.75 84C11.375 84 7.65625 82.4687 4.59375 79.4062C1.53125 76.3438 0 72.625 0 68.25C0 63.875 1.53125 60.1562 4.59375 57.0938C7.65625 54.0313 11.375 52.5 15.75 52.5C17.85 52.5 19.8188 52.8938 21.6562 53.6813C23.4937 54.4688 25.1562 55.5625 26.6437 56.9625L42.2625 49.0875C42 47.075 42.1085 45.1063 42.588 43.1813C43.0675 41.2563 43.9215 39.4625 45.15 37.8L40.6875 30.975C40.075 31.15 39.4398 31.2812 38.7818 31.3687C38.1238 31.4562 37.4465 31.5 36.75 31.5C32.375 31.5 28.6562 29.9687 25.5938 26.9062C22.5313 23.8438 21 20.125 21 15.75C21 11.375 22.5313 7.65625 25.5938 4.59375C28.6562 1.53125 32.375 0 36.75 0C41.125 0 44.8438 1.53125 47.9062 4.59375C50.9687 7.65625 52.5 11.375 52.5 15.75C52.5 17.5 52.2165 19.1852 51.6495 20.8057C51.0825 22.4262 50.316 23.891 49.35 25.2L53.9437 32.025C54.6437 31.85 55.3 31.7187 55.9125 31.6312C56.525 31.5437 57.1812 31.5 57.8812 31.5C59.3687 31.5 60.7687 31.675 62.0812 32.025C63.3937 32.375 64.6625 32.9 65.8875 33.6L74.55 26.5125C74.2 25.6375 73.9375 24.7415 73.7625 23.8245C73.5875 22.9075 73.5 21.966 73.5 21C73.5 16.625 75.0313 12.9062 78.0938 9.84375C81.1562 6.78125 84.875 5.25 89.25 5.25C93.625 5.25 97.3438 6.78125 100.406 9.84375C103.469 12.9062 105 16.625 105 21C105 25.375 103.469 29.0938 100.406 32.1562C97.3438 35.2187 93.625 36.75 89.25 36.75C87.7625 36.75 86.3625 36.554 85.05 36.162C83.7375 35.77 82.4688 35.2222 81.2438 34.5187L72.5812 41.7375C72.9312 42.6125 73.1938 43.5103 73.3688 44.4308C73.5438 45.3513 73.6312 46.291 73.6312 47.25C73.6312 51.625 72.1 55.3438 69.0375 58.4062C65.975 61.4687 62.2562 63 57.8812 63C55.7812 63 53.7915 62.6062 51.912 61.8187C50.0325 61.0312 48.3473 59.9375 46.8563 58.5375L31.3687 66.2812C31.5437 67.0688 31.6102 67.8562 31.5682 68.6437C31.5262 69.4312 31.416 70.2187 31.2375 71.0062L42.2625 77.3063C43.6625 76.0813 45.2165 75.1398 46.9245 74.4818C48.6325 73.8238 50.491 73.4965 52.5 73.5C56.875 73.5 60.5938 75.0313 63.6562 78.0938C66.7187 81.1562 68.25 84.875 68.25 89.25C68.25 93.625 66.7187 97.3438 63.6562 100.406C60.5938 103.469 56.875 105 52.5 105ZM15.75 73.5C17.2375 73.5 18.4852 72.996 19.4932 71.988C20.5012 70.98 21.0035 69.734 21 68.25C20.9965 66.766 20.4925 65.52 19.488 64.512C18.4835 63.504 17.2375 63 15.75 63C14.2625 63 13.0165 63.504 12.012 64.512C11.0075 65.52 10.5035 66.766 10.5 68.25C10.4965 69.734 11.0005 70.9818 12.012 71.9933C13.0235 73.0048 14.2695 73.507 15.75 73.5ZM36.75 21C38.2375 21 39.4853 20.496 40.4933 19.488C41.5013 18.48 42.0035 17.234 42 15.75C41.9965 14.266 41.4925 13.02 40.488 12.012C39.4835 11.004 38.2375 10.5 36.75 10.5C35.2625 10.5 34.0165 11.004 33.012 12.012C32.0075 13.02 31.5035 14.266 31.5 15.75C31.4965 17.234 32.0005 18.4817 33.012 19.4932C34.0235 20.5047 35.2695 21.007 36.75 21ZM52.5 94.5C53.9875 94.5 55.2353 93.996 56.2433 92.988C57.2513 91.98 57.7535 90.734 57.75 89.25C57.7465 87.766 57.2425 86.52 56.238 85.512C55.2335 84.504 53.9875 84 52.5 84C51.0125 84 49.7665 84.504 48.762 85.512C47.7575 86.52 47.2535 87.766 47.25 89.25C47.2465 90.734 47.7505 91.9817 48.762 92.9932C49.7735 94.0047 51.0195 94.507 52.5 94.5ZM57.75 52.5C59.2375 52.5 60.4853 51.996 61.4933 50.988C62.5013 49.98 63.0035 48.734 63 47.25C62.9965 45.766 62.4925 44.52 61.488 43.512C60.4835 42.504 59.2375 42 57.75 42C56.2625 42 55.0165 42.504 54.012 43.512C53.0075 44.52 52.5035 45.766 52.5 47.25C52.4965 48.734 53.0005 49.9818 54.012 50.9933C55.0235 52.0048 56.2695 52.507 57.75 52.5ZM89.25 26.25C90.7375 26.25 91.9852 25.746 92.9932 24.738C94.0012 23.73 94.5035 22.484 94.5 21C94.4965 19.516 93.9925 18.27 92.988 17.262C91.9835 16.254 90.7375 15.75 89.25 15.75C87.7625 15.75 86.5165 16.254 85.512 17.262C84.5075 18.27 84.0035 19.516 84 21C83.9965 22.484 84.5005 23.7317 85.512 24.7432C86.5235 25.7547 87.7695 26.257 89.25 26.25Z" fill="url(#paint0_linear_717_574)"/>
<defs>
<linearGradient id="paint0_linear_717_574" x1="52.5" y1="0" x2="52.5" y2="105" gradientUnits="userSpaceOnUse">
<stop stop-color="#357D86"/>
<stop offset="1" stop-color="#015355"/>
</linearGradient>
</defs>
</svg>
