<svg width="32" height="31" viewBox="0 0 32 31" fill="none" xmlns="http://www.w3.org/2000/svg">
<path d="M15.7773 1.51367C16.3169 1.56722 16.8286 1.7794 17.248 2.12305L17.4502 2.30566L28.6982 13.5557C30.3695 15.2275 29.2856 18.0449 27.0039 18.2383V24.25C27.0039 25.6421 26.451 26.9774 25.4668 27.9619C24.4825 28.9464 23.1471 29.4999 21.7549 29.5H9.25684C7.86456 29.5 6.52932 28.9465 5.54492 27.9619C4.56063 26.9773 4.00782 25.6422 4.00781 24.25V18.2383C1.7284 18.045 0.640947 15.2286 2.31348 13.5557L13.5615 2.30566C14.0772 1.79008 14.7766 1.5 15.5059 1.5L15.7773 1.51367ZM13.6309 15.75C13.5317 15.7501 13.4364 15.7892 13.3662 15.8594C13.2959 15.9297 13.2568 16.0254 13.2568 16.125V19.875C13.2569 19.9745 13.2959 20.0703 13.3662 20.1406C13.4364 20.2108 13.5318 20.2499 13.6309 20.25H17.3809C17.4799 20.2499 17.5753 20.2108 17.6455 20.1406C17.7158 20.0703 17.7549 19.9745 17.7549 19.875V16.125C17.7549 16.0255 17.7158 15.9297 17.6455 15.8594C17.5753 15.7892 17.48 15.7501 17.3809 15.75H13.6309Z" stroke="#ABABAB" stroke-width="3"/>
</svg>
