<svg width="44" height="24" viewBox="0 0 44 24" fill="none" xmlns="http://www.w3.org/2000/svg">
<path d="M7.315 21.8182C6.25167 21.8182 5.48167 22.0458 5.00501 22.5011C4.52834 22.9564 3.86834 23.2742 3.02501 23.4545C2.18167 23.6349 1.46667 23.5535 0.880006 23.2102C0.293339 22.8669 5.47263e-06 22.3484 5.47263e-06 21.6545C5.47263e-06 21.1091 0.238339 20.5818 0.715005 20.0727C1.19167 19.5636 1.94334 19.0545 2.97001 18.5455C3.15334 18.4364 3.63954 18.2269 4.4286 17.9171C5.21767 17.6073 6.25314 17.4531 7.53501 17.4545C9.55167 17.4545 10.9083 17.8182 11.605 18.5455C12.3017 19.2727 13.3283 19.6364 14.685 19.6364C16.0417 19.6364 17.0595 19.2727 17.7386 18.5455C18.4177 17.8182 19.8198 17.4545 21.945 17.4545C24.0702 17.4545 25.5097 17.8182 26.2636 18.5455C27.0175 19.2727 28.0713 19.6364 29.425 19.6364C30.7787 19.6364 31.7687 19.2727 32.395 18.5455C33.0213 17.8182 34.3779 17.4545 36.465 17.4545C37.3083 17.4545 38.1245 17.5549 38.9136 17.7556C39.7027 17.9564 40.4998 18.256 41.305 18.6545C42.2217 19.1273 42.9 19.6182 43.34 20.1273C43.78 20.6364 44 21.1455 44 21.6545C44 22.3455 43.7067 22.864 43.12 23.2102C42.5333 23.5564 41.8183 23.6378 40.975 23.4545C40.1317 23.2713 39.4629 22.9535 38.9686 22.5011C38.4743 22.0487 37.7131 21.8211 36.685 21.8182C35.3283 21.8182 34.3105 22.1818 33.6314 22.9091C32.9523 23.6364 31.5502 24 29.425 24C27.2998 24 25.8603 23.6364 25.1064 22.9091C24.3525 22.1818 23.2987 21.8182 21.945 21.8182C20.5913 21.8182 19.5734 22.1818 18.8914 22.9091C18.2094 23.6364 16.7889 24 14.63 24C12.4711 24 11.0594 23.6364 10.395 22.9091C9.7306 22.1818 8.70394 21.8182 7.315 21.8182ZM7.315 13.0909C6.28834 13.0909 5.52714 13.3185 5.03141 13.7738C4.53567 14.2291 3.86687 14.5469 3.02501 14.7273C2.18314 14.9076 1.46814 14.8262 0.880006 14.4829C0.291872 14.1396 -0.00146119 13.6211 5.47263e-06 12.9273C5.47263e-06 12.3818 0.238339 11.8545 0.715005 11.3455C1.19167 10.8364 1.94334 10.3273 2.97001 9.81818C3.15334 9.70909 3.63954 9.50036 4.4286 9.192C5.21767 8.88364 6.25314 8.72873 7.53501 8.72727C9.55167 8.72727 10.9083 9.09091 11.605 9.81818C12.3017 10.5455 13.3283 10.9091 14.685 10.9091C16.0417 10.9091 17.0595 10.5455 17.7386 9.81818C18.4177 9.09091 19.8198 8.72727 21.945 8.72727C24.0702 8.72727 25.5097 9.09091 26.2636 9.81818C27.0175 10.5455 28.0529 10.9091 29.37 10.9091C30.6871 10.9091 31.6771 10.5455 32.34 9.81818C33.0029 9.09091 34.3596 8.72727 36.41 8.72727C37.6933 8.72727 38.7295 8.88218 39.5186 9.192C40.3077 9.50182 40.7931 9.71055 40.975 9.81818C42.0383 10.3636 42.8083 10.8822 43.285 11.3738C43.7617 11.8655 44 12.3833 44 12.9273C44 13.6182 43.6971 14.1367 43.0914 14.4829C42.4857 14.8291 41.7619 14.9105 40.92 14.7273C40.0781 14.544 39.4181 14.2262 38.94 13.7738C38.4619 13.3215 37.7102 13.0938 36.685 13.0909C35.3283 13.0909 34.3112 13.4545 33.6336 14.1818C32.956 14.9091 31.5531 15.2727 29.425 15.2727C27.2969 15.2727 25.8573 14.9091 25.1064 14.1818C24.3555 13.4545 23.3017 13.0909 21.945 13.0909C20.5883 13.0909 19.5895 13.4545 18.9486 14.1818C18.3077 14.9091 16.9048 15.2727 14.74 15.2727C12.5752 15.2727 11.1357 14.9091 10.4214 14.1818C9.70714 13.4545 8.67167 13.0909 7.315 13.0909ZM7.315 4.36364C6.28834 4.36364 5.52714 4.59127 5.03141 5.04655C4.53567 5.50182 3.86687 5.81964 3.02501 6C2.18314 6.18036 1.46814 6.09891 0.880006 5.75564C0.291872 5.41236 -0.00146119 4.89382 5.47263e-06 4.2C5.47263e-06 3.65455 0.238339 3.12727 0.715005 2.61818C1.19167 2.10909 1.94334 1.6 2.97001 1.09091C3.15334 0.981818 3.63954 0.773091 4.4286 0.464727C5.21767 0.156363 6.25314 0.00145455 7.53501 0C9.55167 0 10.9083 0.363636 11.605 1.09091C12.3017 1.81818 13.3283 2.18182 14.685 2.18182C16.0417 2.18182 17.0595 1.81818 17.7386 1.09091C18.4177 0.363636 19.8198 0 21.945 0C24.0702 0 25.5097 0.363636 26.2636 1.09091C27.0175 1.81818 28.0529 2.18182 29.37 2.18182C30.6871 2.18182 31.6771 1.81818 32.34 1.09091C33.0029 0.363636 34.3596 0 36.41 0C37.6933 0 38.7295 0.154909 39.5186 0.464727C40.3077 0.774545 40.7931 0.983273 40.975 1.09091C42.0383 1.63636 42.8083 2.15491 43.285 2.64655C43.7617 3.13818 44 3.656 44 4.2C44 4.89091 43.6971 5.40945 43.0914 5.75564C42.4857 6.10182 41.7619 6.18327 40.92 6C40.0781 5.81673 39.4181 5.49891 38.94 5.04655C38.4619 4.59418 37.7102 4.36655 36.685 4.36364C35.3283 4.36364 34.3112 4.72727 33.6336 5.45455C32.956 6.18182 31.5531 6.54545 29.425 6.54545C27.2969 6.54545 25.8573 6.18182 25.1064 5.45455C24.3555 4.72727 23.3017 4.36364 21.945 4.36364C20.5883 4.36364 19.5895 4.72727 18.9486 5.45455C18.3077 6.18182 16.9048 6.54545 14.74 6.54545C12.5752 6.54545 11.1357 6.18182 10.4214 5.45455C9.70714 4.72727 8.67167 4.36364 7.315 4.36364Z" fill="url(#paint0_linear_717_572)"/>
<defs>
<linearGradient id="paint0_linear_717_572" x1="22" y1="0" x2="22" y2="24" gradientUnits="userSpaceOnUse">
<stop stop-color="#357D86"/>
<stop offset="1" stop-color="#026366"/>
</linearGradient>
</defs>
</svg>
