<svg width="29" height="29" viewBox="0 0 29 29" fill="none" xmlns="http://www.w3.org/2000/svg">
<path d="M14.5 10.1667H14.5144M1.5 14.5C1.5 16.2072 1.83625 17.8977 2.48957 19.4749C3.14288 21.0521 4.10045 22.4852 5.30761 23.6924C6.51477 24.8995 7.94788 25.8571 9.52512 26.5104C11.1023 27.1637 12.7928 27.5 14.5 27.5C16.2072 27.5 17.8977 27.1637 19.4749 26.5104C21.0521 25.8571 22.4852 24.8995 23.6924 23.6924C24.8995 22.4852 25.8571 21.0521 26.5104 19.4749C27.1637 17.8977 27.5 16.2072 27.5 14.5C27.5 11.0522 26.1304 7.74558 23.6924 5.30761C21.2544 2.86964 17.9478 1.5 14.5 1.5C11.0522 1.5 7.74558 2.86964 5.30761 5.30761C2.86964 7.74558 1.5 11.0522 1.5 14.5Z" stroke="#ABABAB" stroke-width="3" stroke-linecap="round" stroke-linejoin="round"/>
<path d="M13.0547 14.5H14.4991V20.2778H15.9436" stroke="#ABABAB" stroke-width="3" stroke-linecap="round" stroke-linejoin="round"/>
</svg>
