<svg width="28" height="31" viewBox="0 0 28 31" fill="none" xmlns="http://www.w3.org/2000/svg">
<path d="M9.07422 13.6178C9.07422 14.823 9.55299 15.9788 10.4052 16.8311C11.2574 17.6833 12.4133 18.162 13.6185 18.162C14.8237 18.162 15.9796 17.6833 16.8318 16.8311C17.684 15.9788 18.1628 14.823 18.1628 13.6178C18.1628 12.4125 17.684 11.2567 16.8318 10.4045C15.9796 9.55226 14.8237 9.07349 13.6185 9.07349C12.4133 9.07349 11.2574 9.55226 10.4052 10.4045C9.55299 11.2567 9.07422 12.4125 9.07422 13.6178Z" stroke="#ABABAB" stroke-width="3" stroke-linecap="round" stroke-linejoin="round"/>
<path d="M22.1871 22.1866L15.76 28.6138C15.1919 29.1812 14.4218 29.5 13.6188 29.5C12.8159 29.5 12.0458 29.1812 11.4777 28.6138L5.04909 22.1866C3.35441 20.4919 2.20033 18.3326 1.73281 15.982C1.26528 13.6313 1.50529 11.1948 2.4225 8.98055C3.33971 6.76629 4.89291 4.87374 6.8857 3.54222C8.8785 2.2107 11.2214 1.5 13.6181 1.5C16.0148 1.5 18.3577 2.2107 20.3505 3.54222C22.3433 4.87374 23.8965 6.76629 24.8137 8.98055C25.7309 11.1948 25.9709 13.6313 25.5034 15.982C25.0358 18.3326 23.8818 20.4919 22.1871 22.1866Z" stroke="#ABABAB" stroke-width="3" stroke-linecap="round" stroke-linejoin="round"/>
</svg>
