<svg width="36" height="42" viewBox="0 0 36 42" fill="none" xmlns="http://www.w3.org/2000/svg">
<path d="M16.9412 42C15.7765 42 14.7798 41.5891 13.9511 40.7673C13.1224 39.9455 12.7073 38.9564 12.7059 37.8H21.1765C21.1765 38.955 20.7621 39.9441 19.9334 40.7673C19.1047 41.5905 18.1073 42.0014 16.9412 42ZM2.11765 35.7C1.51765 35.7 1.01507 35.4984 0.60989 35.0952C0.204713 34.692 0.00141907 34.1936 7.30222e-06 33.6C-0.00140446 33.0064 0.20189 32.508 0.60989 32.1048C1.01789 31.7016 1.52048 31.5 2.11765 31.5H4.2353V16.8C4.2353 13.895 5.11765 11.3141 6.88236 9.0573C8.64706 6.8005 10.9412 5.3214 13.7647 4.62V3.15C13.7647 2.275 14.0739 1.5316 14.6922 0.919805C15.3106 0.308005 16.0602 0.00140477 16.9412 4.77273e-06C17.8221 -0.00139523 18.5725 0.305205 19.1922 0.919805C19.812 1.5344 20.1205 2.2778 20.1177 3.15V3.8325C19.7647 4.5325 19.5 5.2675 19.3235 6.0375C19.1471 6.8075 19.0588 7.595 19.0588 8.4C19.0588 11.305 20.0915 13.7816 22.1569 15.8298C24.2224 17.878 26.7191 18.9014 29.6471 18.9V31.5H31.7647C32.3647 31.5 32.868 31.7016 33.2746 32.1048C33.6812 32.508 33.8838 33.0064 33.8824 33.6C33.8809 34.1936 33.6776 34.6927 33.2725 35.0973C32.8673 35.5019 32.3647 35.7028 31.7647 35.7H2.11765ZM25.1471 12.8625C23.9118 11.6375 23.2941 10.15 23.2941 8.4C23.2941 6.65 23.9118 5.1625 25.1471 3.9375C26.3824 2.7125 27.8824 2.1 29.6471 2.1C31.4118 2.1 32.9118 2.7125 34.1471 3.9375C35.3824 5.1625 36 6.65 36 8.4C36 10.15 35.3824 11.6375 34.1471 12.8625C32.9118 14.0875 31.4118 14.7 29.6471 14.7C27.8824 14.7 26.3824 14.0875 25.1471 12.8625Z" fill="#C9C9C9"/>
<circle cx="29.5" cy="8.5" r="6.5" fill="#838383"/>
</svg>
